<svg width="133" height="89" viewBox="0 0 133 89" fill="none" xmlns="http://www.w3.org/2000/svg">
<path d="M12.288 33H2.592V0.983997H19.68C27.168 0.983997 31.2 5.976 31.2 11.976C31.2 17.928 27.168 22.728 19.68 22.728H12.288V33ZM21.36 11.88C21.36 10.152 20.064 9.048 18.432 9.048H12.288V14.664H18.432C20.064 14.664 21.36 13.56 21.36 11.88ZM34.0852 17.016C34.0852 7.176 41.7172 0.455998 51.6052 0.455998C61.4933 0.455998 69.1252 7.176 69.1252 17.016C69.1252 26.856 61.4933 33.576 51.6052 33.576C41.7172 33.576 34.0852 26.856 34.0852 17.016ZM59.2853 17.016C59.2853 12.552 56.2612 9 51.6052 9C46.9492 9 43.9252 12.552 43.9252 17.016C43.9252 21.48 46.9492 25.032 51.6052 25.032C56.2612 25.032 59.2853 21.48 59.2853 17.016ZM102.659 33H91.6192L87.2032 22.728H83.6992V33H74.0032V0.983997H91.0912C98.5792 0.983997 102.611 5.976 102.611 11.976C102.611 17.496 99.3952 20.424 96.8512 21.672L102.659 33ZM92.7712 11.832C92.7712 10.104 91.2352 9.048 89.6032 9.048H83.6992V14.664H89.6032C91.2352 14.664 92.7712 13.608 92.7712 11.832ZM124.066 33H114.37V9.432H105.778V0.983997H132.61V9.432H124.066V33ZM21.9 68.38H16.02V88H5.22V68.38H0.42V59.02H5.22V57.7C5.22 51.7 9.84 47.38 16.26 47.38C19.02 47.38 21.42 47.98 22.98 48.82L21.06 56.02C20.4 55.6 19.56 55.36 18.78 55.36C17.16 55.36 16.02 56.38 16.02 58.06V59.02H21.9V68.38ZM41.3456 88.72C31.0856 88.72 25.0856 81.58 25.0856 73.48C25.0856 65.38 31.0856 58.3 41.3456 58.3C51.6656 58.3 57.6656 65.38 57.6656 73.48C57.6656 81.58 51.6656 88.72 41.3456 88.72ZM41.3456 79.18C44.7056 79.18 46.5656 76.72 46.5656 73.48C46.5656 70.3 44.7056 67.84 41.3456 67.84C38.0456 67.84 36.1856 70.3 36.1856 73.48C36.1856 76.72 38.0456 79.18 41.3456 79.18ZM74.2945 88H63.4945V47.98H74.2945V88ZM87.5109 56.02C84.1509 56.02 81.4509 53.32 81.4509 49.96C81.4509 46.6 84.1509 43.9 87.5109 43.9C90.8709 43.9 93.5709 46.6 93.5709 49.96C93.5709 53.32 90.8709 56.02 87.5109 56.02ZM92.9109 88H82.1109V59.02H92.9109V88ZM115.007 88.72C104.747 88.72 98.7473 81.58 98.7473 73.48C98.7473 65.38 104.747 58.3 115.007 58.3C125.327 58.3 131.327 65.38 131.327 73.48C131.327 81.58 125.327 88.72 115.007 88.72ZM115.007 79.18C118.367 79.18 120.227 76.72 120.227 73.48C120.227 70.3 118.367 67.84 115.007 67.84C111.707 67.84 109.847 70.3 109.847 73.48C109.847 76.72 111.707 79.18 115.007 79.18Z" fill="white"/>
</svg>
