<svg width="80" height="80" viewBox="0 0 80 80" fill="none" xmlns="http://www.w3.org/2000/svg">
<path d="M62.275 46.8125C61.9553 44.5586 61.2935 42.3667 60.3125 40.3125C66.25 28.4562 69.8281 12.725 65.7312 5.9375C65.1187 4.87626 64.2337 3.998 63.1678 3.39362C62.102 2.78925 60.8939 2.48073 59.6687 2.5C55.2562 2.5 51.5437 6.21562 48.2812 13.8625C46.3375 18.4312 44.8906 23.65 43.9062 27.8437C41.3221 27.3869 38.6779 27.3869 36.0937 27.8437C35.1156 23.65 33.6687 18.4312 31.7187 13.8625C28.4687 6.21562 24.7437 2.5 20.3312 2.5C19.1026 2.48211 17.8915 2.79387 16.8242 3.40283C15.7569 4.01178 14.8723 4.89567 14.2625 5.9625C10.1656 12.7375 13.75 28.4687 19.6875 40.3125C18.7098 42.3631 18.0502 44.5507 17.7312 46.8C14.5917 49.753 12.7539 53.8322 12.622 58.1403C12.4902 62.4484 14.0751 66.6324 17.0281 69.7719C19.9811 72.9114 24.0604 74.7492 28.3684 74.8811C32.6765 75.0129 36.8605 73.428 40 70.475L33.4 64.4219C32.8903 63.9975 32.57 63.3881 32.5096 62.7276C32.4493 62.0671 32.6538 61.4097 33.0781 60.9C33.5025 60.3903 34.1119 60.07 34.7724 60.0097C35.4329 59.9493 36.0903 60.1538 36.6 60.5781L40 63.4062L43.4 60.5781C43.9097 60.1538 44.5671 59.9493 45.2276 60.0097C45.8881 60.07 46.4975 60.3903 46.9219 60.9C47.3462 61.4097 47.5507 62.0671 47.4903 62.7276C47.43 63.3881 47.1097 63.9975 46.6 64.4219L40 70.475C41.5478 71.9684 43.3767 73.1398 45.3806 73.9211C47.3845 74.7023 49.5236 75.078 51.6738 75.0263C53.824 74.9747 55.9426 74.4966 57.9067 73.62C59.8707 72.7433 61.6412 71.4855 63.1155 69.9194C64.5897 68.3533 65.7384 66.5101 66.495 64.4967C67.2515 62.4833 67.6008 60.3398 67.5226 58.1903C67.4444 56.0409 66.9403 53.9284 66.0395 51.9753C65.1387 50.0222 63.8591 48.2673 62.275 46.8125ZM22.9 35.3969C20.8188 30.773 19.2592 25.9317 18.25 20.9625C17.1594 15.2969 17.2656 10.65 18.5406 8.55C18.7025 8.2181 18.9588 7.94139 19.2774 7.7546C19.5959 7.5678 19.9625 7.47923 20.3312 7.5C22.3969 7.5 24.8687 10.5312 27.1187 15.8187C28.9719 20.175 30.3531 25.2312 31.2844 29.2562C28.0416 30.6147 25.1641 32.7172 22.8844 35.3937L22.9 35.3969ZM31.25 55C30.5083 55 29.7833 54.7801 29.1666 54.368C28.5499 53.9559 28.0693 53.3703 27.7854 52.6851C27.5016 51.9998 27.4273 51.2458 27.572 50.5184C27.7167 49.791 28.0739 49.1228 28.5983 48.5983C29.1228 48.0739 29.791 47.7167 30.5184 47.572C31.2458 47.4274 31.9998 47.5016 32.6851 47.7854C33.3703 48.0693 33.9559 48.5499 34.368 49.1666C34.7801 49.7833 35 50.5083 35 51.25C35 52.2446 34.6049 53.1984 33.9016 53.9016C33.1984 54.6049 32.2445 55 31.25 55ZM48.75 55C48.0083 55 47.2833 54.7801 46.6666 54.368C46.0499 53.9559 45.5693 53.3703 45.2854 52.6851C45.0016 51.9998 44.9273 51.2458 45.072 50.5184C45.2167 49.791 45.5739 49.1228 46.0983 48.5983C46.6228 48.0739 47.291 47.7167 48.0184 47.572C48.7458 47.4274 49.4998 47.5016 50.185 47.7854C50.8703 48.0693 51.4559 48.5499 51.868 49.1666C52.2801 49.7833 52.5 50.5083 52.5 51.25C52.5 52.2446 52.1049 53.1984 51.4016 53.9016C50.6984 54.6049 49.7445 55 48.75 55ZM55.1719 33.3844C53.2718 31.6499 51.088 30.2546 48.7156 29.2594C49.6531 25.2312 51.0281 20.175 52.8812 15.8219C55.1312 10.5312 57.6031 7.5 59.6687 7.5C60.0374 7.47923 60.4041 7.5678 60.7226 7.7546C61.0412 7.94139 61.2975 8.2181 61.4594 8.55C62.7344 10.6562 62.8406 15.2969 61.75 20.9625C60.7458 25.9311 59.1914 30.7723 57.1156 35.3969C56.5095 34.6869 55.8603 34.0148 55.1719 33.3844Z" fill="white"/>
</svg>
